<svg xmlns="http://www.w3.org/2000/svg" version="1.1" xmlns:xlink="http://www.w3.org/1999/xlink" xmlns:svgjs="http://svgjs.dev/svgjs" width="1500" height="939" viewBox="0 0 1500 939"><g transform="matrix(1,0,0,1,-0.9090909090909918,-1.5145161290323017)"><svg viewBox="0 0 396 248" data-background-color="#ffd7ea" preserveAspectRatio="xMidYMid meet" height="939" width="1500" xmlns="http://www.w3.org/2000/svg" xmlns:xlink="http://www.w3.org/1999/xlink"><g id="tight-bounds" transform="matrix(1,0,0,1,0.2400000000000091,0.4000000000000057)"><svg viewBox="0 0 395.52 247.2" height="247.2" width="395.52"><g><svg></svg></g><g><svg viewBox="0 0 395.52 247.2" height="247.2" width="395.52"><mask id="53d63feb-e5e4-4de3-8d89-b705d9631bb3"><rect width="640" height="400" fill="white"></rect><g transform="matrix(1,0,0,1,39.55199999999999,96.82016786635882)"><svg viewBox="0 0 316.416 53.55966426728236" height="53.55966426728236" width="316.416"><g><svg viewBox="0 0 316.416 53.55966426728236" height="53.55966426728236" width="316.416"><g><svg viewBox="0 0 316.416 53.55966426728236" height="53.55966426728236" width="316.416"><g id="SvgjsG1332"><svg viewBox="0 0 316.416 53.55966426728236" height="53.55966426728236" width="316.416" id="SvgjsSvg1331"><g><svg viewBox="0 0 316.416 53.55966426728236" height="53.55966426728236" width="316.416"><g transform="matrix(1,0,0,1,0,0)"><svg width="316.416" viewBox="-1.0699999999999998 -40.57 259.84000000000003 44.81" height="53.55966426728236" data-palette-color="#ffffff"><path d="M14.11 0.2L2.93-35.99 9.62-35.99 17.19-7.76 17.19 0.2 14.11 0.2ZM19.19-9.33L26.81-35.99 33.45-35.99 21.73 0.2 19.19 0.2 19.19-9.33ZM48.34-23.54L48.34-8.35Q48.34-6.69 48.78-5.76 49.22-4.83 50.02-4.35 50.83-3.86 51.83-3.74 52.83-3.61 53.95-3.61L53.95-3.61 53.95 0Q53.32 0.1 52.68 0.15L52.68 0.15Q52.15 0.2 51.39 0.22 50.63 0.24 49.9 0.24L49.9 0.24Q49.17 0.24 48.41 0.2 47.65 0.15 47.12 0.05L47.12 0.05Q45.46-0.24 44.53-1.39 43.6-2.54 43.14-3.93 42.67-5.32 42.55-6.64 42.43-7.96 42.43-8.69L42.43-8.69 42.43-23.54 38.82-23.54 38.82-27.54 42.43-27.54 42.43-35.35 48.34-35.35 48.34-27.54 52.73-27.54 52.73-23.54 48.34-23.54ZM77.73-30.42L77.73-30.42Q77.49-30.52 77.14-30.76 76.8-31.01 76.17-31.23 75.53-31.45 74.56-31.59 73.58-31.74 72.07-31.64L72.07-31.64 72.07-36.57Q74.21-36.52 76.44-36.11 78.66-35.69 80.02-34.81L80.02-34.81Q79.73-34.18 79.34-33.42 78.95-32.67 78.61-32.01 78.27-31.35 78.02-30.91 77.78-30.47 77.73-30.42ZM60.88-26.51L60.88-26.51Q60.88-28.66 61.62-30.37 62.35-32.08 63.59-33.37 64.84-34.67 66.52-35.42 68.21-36.18 70.06-36.43L70.06-36.43 70.06-31.3Q68.5-30.76 67.48-29.42 66.45-28.08 66.45-26.71L66.45-26.71Q66.45-24.8 67.48-23.63 68.5-22.46 70.06-21.58L70.06-21.58 70.06-16.02Q68.45-16.8 66.84-17.7 65.23-18.6 63.91-19.82 62.59-21.04 61.74-22.66 60.88-24.27 60.88-26.51ZM60.64-2.39L61.66-6.59Q62.35-6.2 63.4-5.83 64.45-5.47 65.57-5.15 66.69-4.83 67.82-4.64 68.94-4.44 69.92-4.44L69.92-4.44 70.06-4.44 70.06 0.2 69.97 0.2Q68.79 0.2 67.55 0.07 66.3-0.05 65.03-0.34 63.76-0.63 62.62-1.15 61.47-1.66 60.64-2.39L60.64-2.39ZM72.07-14.89L72.07-20.61Q73.68-19.87 75.36-19.04 77.05-18.21 78.41-17.02 79.78-15.82 80.66-14.11 81.54-12.4 81.54-9.86L81.54-9.86Q81.54-8.11 80.88-6.45 80.22-4.79 79.02-3.44 77.83-2.1 76.07-1.17 74.31-0.24 72.07 0.05L72.07 0.05 72.07-4.64Q76.07-5.62 76.07-9.96L76.07-9.96Q76.07-11.67 74.95-12.79 73.82-13.92 72.07-14.89L72.07-14.89ZM108.29-23.58L105.66-20.41Q104.92-21.29 103.63-22.05 102.34-22.8 100.19-22.95L100.19-22.95 100.19-27.64Q102.87-27.49 104.8-26.49 106.73-25.49 108.29-23.58L108.29-23.58ZM100.19 0.2L100.19-4.64Q101.95-4.83 103.19-5.49 104.44-6.15 105.56-7.03L105.56-7.03 107.76-3.86Q106.24-1.95 104.48-0.95 102.73 0.05 100.19 0.2L100.19 0.2ZM86.56-13.77L86.56-13.77Q86.56-16.55 87.37-18.99 88.18-21.44 89.74-23.29 91.3-25.15 93.43-26.29 95.55-27.44 98.19-27.64L98.19-27.64 98.19-22.9Q95.74-22.36 94.28-19.9 92.81-17.43 92.81-13.92L92.81-13.92Q92.81-12.11 93.18-10.52 93.55-8.94 94.23-7.71 94.91-6.49 95.92-5.66 96.92-4.83 98.19-4.64L98.19-4.64 98.19 0.2Q95.5 0.05 93.35-1.1 91.2-2.25 89.69-4.13 88.18-6.01 87.37-8.5 86.56-10.99 86.56-13.77ZM120.45-8.3L120.45-8.3Q120.45-6.1 121.35-5.03 122.26-3.96 123.96-3.76L123.96-3.76 123.96 0.2Q123.77 0.24 123.33 0.24L123.33 0.24Q121.67 0.24 120.13-0.2 118.59-0.63 117.42-1.61 116.25-2.59 115.59-4.2 114.93-5.81 114.93-8.15L114.93-8.15Q114.93-10.4 115.88-12.04 116.84-13.67 118.32-14.72 119.81-15.77 121.72-16.28 123.62-16.8 125.58-16.8L125.58-16.8 127.72-16.8 127.72-13.33 126.65-13.33Q125.67-13.33 124.6-13.13 123.53-12.94 122.6-12.4 121.67-11.87 121.06-10.86 120.45-9.86 120.45-8.3ZM135.63-8.54L135.63-8.15Q135.63-7.76 135.68-7.01 135.73-6.25 135.88-5.47 136.03-4.69 136.34-4.05 136.66-3.42 137.2-3.22L137.2-3.22 135.63 0.05Q135 0.05 134.29-0.24 133.58-0.54 132.92-1.07 132.27-1.61 131.8-2.27 131.34-2.93 131.09-3.71L131.09-3.71Q130.61-2.49 129.16-1.54 127.72-0.59 125.97-0.15L125.97-0.15 125.97-3.86Q127.14-4.1 128.09-4.81 129.04-5.52 129.73-6.49L129.73-6.49 129.73-16.8Q129.73-19.19 129.48-20.61 129.24-22.02 128.65-22.68 128.07-23.34 127.21-23.51 126.36-23.68 125.19-23.68L125.19-23.68Q124.11-23.68 123.16-23.41 122.21-23.14 121.4-22.78 120.6-22.41 119.99-21.97 119.37-21.53 119.08-21.29L119.08-21.29 116.88-24.66Q117.37-25.2 118.35-25.76 119.33-26.32 120.6-26.76 121.87-27.2 123.35-27.47 124.84-27.73 126.45-27.73L126.45-27.73Q127.92-27.73 129.31-27.44 130.7-27.15 131.85-26.46 133-25.78 133.85-24.63 134.71-23.49 135.05-21.78L135.05-21.78Q135.39-20.07 135.51-18.33 135.63-16.6 135.63-14.89L135.63-14.89 135.63-8.54ZM144.96-27.54L150.23-27.54 150.87-24.76 150.87 0 144.96 0 144.96-27.54ZM165.47-24.51L165.47-24.51Q166.3-23.68 166.76-22.58 167.22-21.48 167.44-20.29 167.66-19.09 167.71-17.87 167.76-16.65 167.76-15.48L167.76-15.48 167.76-0.98 167.76 0 161.8 0 161.8-14.99Q161.8-16.65 161.66-18.16 161.51-19.68 160.97-20.85 160.44-22.02 159.51-22.68 158.58-23.34 156.92-23.34L156.92-23.34Q156.24-23.34 155.09-23.12 153.94-22.9 152.87-22.41L152.87-22.41 152.87-26.17Q154.19-26.86 155.72-27.34 157.26-27.83 158.73-27.83L158.73-27.83Q160.93-27.83 162.44-26.93 163.95-26.03 165.47-24.51ZM175.91-27.54L181.19-27.54 181.82-24.76 181.82 0 175.91 0 175.91-27.54ZM196.42-24.51L196.42-24.51Q197.25-23.68 197.71-22.58 198.18-21.48 198.4-20.29 198.62-19.09 198.67-17.87 198.72-16.65 198.72-15.48L198.72-15.48 198.72-0.98 198.72 0 192.76 0 192.76-14.99Q192.76-16.65 192.61-18.16 192.47-19.68 191.93-20.85 191.39-22.02 190.46-22.68 189.54-23.34 187.88-23.34L187.88-23.34Q187.19-23.34 186.04-23.12 184.9-22.9 183.82-22.41L183.82-22.41 183.82-26.17Q185.14-26.86 186.68-27.34 188.22-27.83 189.68-27.83L189.68-27.83Q191.88-27.83 193.39-26.93 194.91-26.03 196.42-24.51ZM219.66-23.19L219.66-27.78Q222.3-27.54 224.42-26.37 226.55-25.2 228.06-23.34 229.57-21.48 230.38-19.09 231.18-16.7 231.18-14.11L231.18-14.11Q231.18-12.94 231.04-11.77L231.04-11.77 214.29-11.77 214.29-16.06 225.57-16.06Q225.57-17.33 225.15-18.51 224.74-19.68 223.93-20.68 223.13-21.68 222.05-22.36 220.98-23.05 219.66-23.19L219.66-23.19ZM219.46-4.59L219.46-4.59Q220-4.59 220.81-4.71 221.61-4.83 222.52-5.15 223.42-5.47 224.32-5.96 225.23-6.45 225.91-7.13L225.91-7.13 228.06-3.86Q226.45-1.86 224.3-0.83 222.15 0.2 218.83 0.2L218.83 0.2Q216.14 0.2 213.8-0.9 211.46-2 209.8-3.91 208.14-5.81 207.16-8.35 206.18-10.89 206.18-13.82L206.18-13.82Q206.18-16.6 207.09-19.09 207.99-21.58 209.55-23.46 211.12-25.34 213.19-26.51 215.27-27.69 217.66-27.83L217.66-27.83 217.66-23.14Q215.85-22.8 214.68-21.68 213.51-20.56 212.85-19.12 212.19-17.68 211.92-16.16 211.65-14.65 211.65-13.57L211.65-13.57Q211.65-11.67 212.12-10.03 212.58-8.4 213.56-7.2 214.53-6.01 215.97-5.3 217.41-4.59 219.46-4.59ZM239.29-27.54L244.56-27.54 245.19-24.71 245.19-9.77 245.19-9.67 245.19 0 239.29 0 239.29-27.54ZM247.2-21.34L247.2-26.32Q248.42-27 250.13-27.37 251.84-27.73 254.77-27.73L254.77-27.73 254.77-21.58Q253.4-21.97 251.44-22.02L251.44-22.02Q250.37-22.02 249.27-21.85 248.17-21.68 247.2-21.34L247.2-21.34Z" opacity="1" transform="matrix(1,0,0,1,0,0)" fill="black" class="wordmark-text-0" id="SvgjsPath1330" stroke-width="7" stroke="black" stroke-linejoin="round"></path></svg></g></svg></g></svg></g></svg></g><g></g></svg></g></svg></g></mask><g transform="matrix(1,0,0,1,39.55199999999999,96.82016786635882)"><svg viewBox="0 0 316.416 53.55966426728236" height="53.55966426728236" width="316.416"><g><svg viewBox="0 0 316.416 53.55966426728236" height="53.55966426728236" width="316.416"><g><svg viewBox="0 0 316.416 53.55966426728236" height="53.55966426728236" width="316.416"><g id="textblocktransform"><svg viewBox="0 0 316.416 53.55966426728236" height="53.55966426728236" width="316.416" id="textblock"><g><svg viewBox="0 0 316.416 53.55966426728236" height="53.55966426728236" width="316.416"><g transform="matrix(1,0,0,1,0,0)"><svg width="316.416" viewBox="-1.0699999999999998 -40.57 259.84000000000003 44.81" height="53.55966426728236" data-palette-color="#ffffff"><path d="M14.11 0.2L2.93-35.99 9.62-35.99 17.19-7.76 17.19 0.2 14.11 0.2ZM19.19-9.33L26.81-35.99 33.45-35.99 21.73 0.2 19.19 0.2 19.19-9.33ZM48.34-23.54L48.34-8.35Q48.34-6.69 48.78-5.76 49.22-4.83 50.02-4.35 50.83-3.86 51.83-3.74 52.83-3.61 53.95-3.61L53.95-3.61 53.95 0Q53.32 0.1 52.68 0.15L52.68 0.15Q52.15 0.2 51.39 0.22 50.63 0.24 49.9 0.24L49.9 0.24Q49.17 0.24 48.41 0.2 47.65 0.15 47.12 0.05L47.12 0.05Q45.46-0.24 44.53-1.39 43.6-2.54 43.14-3.93 42.67-5.32 42.55-6.64 42.43-7.96 42.43-8.69L42.43-8.69 42.43-23.54 38.82-23.54 38.82-27.54 42.43-27.54 42.43-35.35 48.34-35.35 48.34-27.54 52.73-27.54 52.73-23.54 48.34-23.54ZM77.73-30.42L77.73-30.42Q77.49-30.52 77.14-30.76 76.8-31.01 76.17-31.23 75.53-31.45 74.56-31.59 73.58-31.74 72.07-31.64L72.07-31.64 72.07-36.57Q74.21-36.52 76.44-36.11 78.66-35.69 80.02-34.81L80.02-34.81Q79.73-34.18 79.34-33.42 78.95-32.67 78.61-32.01 78.27-31.35 78.02-30.91 77.78-30.47 77.73-30.42ZM60.88-26.51L60.88-26.51Q60.88-28.66 61.62-30.37 62.35-32.08 63.59-33.37 64.84-34.67 66.52-35.42 68.21-36.18 70.06-36.43L70.06-36.43 70.06-31.3Q68.5-30.76 67.48-29.42 66.45-28.08 66.45-26.71L66.45-26.71Q66.45-24.8 67.48-23.63 68.5-22.46 70.06-21.58L70.06-21.58 70.06-16.02Q68.45-16.8 66.84-17.7 65.23-18.6 63.91-19.82 62.59-21.04 61.74-22.66 60.88-24.27 60.88-26.51ZM60.64-2.39L61.66-6.59Q62.35-6.2 63.4-5.83 64.45-5.47 65.57-5.15 66.69-4.83 67.82-4.64 68.94-4.44 69.92-4.44L69.92-4.44 70.06-4.44 70.06 0.2 69.97 0.2Q68.79 0.2 67.55 0.07 66.3-0.05 65.03-0.34 63.76-0.63 62.62-1.15 61.47-1.66 60.64-2.39L60.64-2.39ZM72.07-14.89L72.07-20.61Q73.68-19.87 75.36-19.04 77.05-18.21 78.41-17.02 79.78-15.82 80.66-14.11 81.54-12.4 81.54-9.86L81.54-9.86Q81.54-8.11 80.88-6.45 80.22-4.79 79.02-3.44 77.83-2.1 76.07-1.17 74.31-0.24 72.07 0.05L72.07 0.05 72.07-4.64Q76.07-5.62 76.07-9.96L76.07-9.96Q76.07-11.67 74.95-12.79 73.82-13.92 72.07-14.89L72.07-14.89ZM108.29-23.58L105.66-20.41Q104.92-21.29 103.63-22.05 102.34-22.8 100.19-22.95L100.19-22.95 100.19-27.64Q102.87-27.49 104.8-26.49 106.73-25.49 108.29-23.58L108.29-23.58ZM100.19 0.2L100.19-4.64Q101.95-4.83 103.19-5.49 104.44-6.15 105.56-7.03L105.56-7.03 107.76-3.86Q106.24-1.95 104.48-0.95 102.73 0.05 100.19 0.2L100.19 0.2ZM86.56-13.77L86.56-13.77Q86.56-16.55 87.37-18.99 88.18-21.44 89.74-23.29 91.3-25.15 93.43-26.29 95.55-27.44 98.19-27.64L98.19-27.64 98.19-22.9Q95.74-22.36 94.28-19.9 92.81-17.43 92.81-13.92L92.81-13.92Q92.81-12.11 93.18-10.52 93.55-8.94 94.23-7.71 94.91-6.49 95.92-5.66 96.92-4.83 98.19-4.64L98.19-4.64 98.19 0.2Q95.5 0.05 93.35-1.1 91.2-2.25 89.69-4.13 88.18-6.01 87.37-8.5 86.56-10.99 86.56-13.77ZM120.45-8.3L120.45-8.3Q120.45-6.1 121.35-5.03 122.26-3.96 123.96-3.76L123.96-3.76 123.96 0.2Q123.77 0.24 123.33 0.24L123.33 0.24Q121.67 0.24 120.13-0.2 118.59-0.63 117.42-1.61 116.25-2.59 115.59-4.2 114.93-5.81 114.93-8.15L114.93-8.15Q114.93-10.4 115.88-12.04 116.84-13.67 118.32-14.72 119.81-15.77 121.72-16.28 123.62-16.8 125.58-16.8L125.58-16.8 127.72-16.8 127.72-13.33 126.65-13.33Q125.67-13.33 124.6-13.13 123.53-12.94 122.6-12.4 121.67-11.87 121.06-10.86 120.45-9.86 120.45-8.3ZM135.63-8.54L135.63-8.15Q135.63-7.76 135.68-7.01 135.73-6.25 135.88-5.47 136.03-4.69 136.34-4.05 136.66-3.42 137.2-3.22L137.2-3.22 135.63 0.05Q135 0.05 134.29-0.24 133.58-0.54 132.92-1.07 132.27-1.61 131.8-2.27 131.34-2.93 131.09-3.71L131.09-3.71Q130.61-2.49 129.16-1.54 127.72-0.59 125.97-0.15L125.97-0.15 125.97-3.86Q127.14-4.1 128.09-4.81 129.04-5.52 129.73-6.49L129.73-6.49 129.73-16.8Q129.73-19.19 129.48-20.61 129.24-22.02 128.65-22.68 128.07-23.34 127.21-23.51 126.36-23.68 125.19-23.68L125.19-23.68Q124.11-23.68 123.16-23.41 122.21-23.14 121.4-22.78 120.6-22.41 119.99-21.97 119.37-21.53 119.08-21.29L119.08-21.29 116.88-24.66Q117.37-25.2 118.35-25.76 119.33-26.32 120.6-26.76 121.87-27.2 123.35-27.47 124.84-27.73 126.45-27.73L126.45-27.73Q127.92-27.73 129.31-27.44 130.7-27.15 131.85-26.46 133-25.78 133.85-24.63 134.71-23.49 135.05-21.78L135.05-21.78Q135.39-20.07 135.51-18.33 135.63-16.6 135.63-14.89L135.63-14.89 135.63-8.54ZM144.96-27.54L150.23-27.54 150.87-24.76 150.87 0 144.96 0 144.96-27.54ZM165.47-24.51L165.47-24.51Q166.3-23.68 166.76-22.58 167.22-21.48 167.44-20.29 167.66-19.09 167.71-17.87 167.76-16.65 167.76-15.48L167.76-15.48 167.76-0.98 167.76 0 161.8 0 161.8-14.99Q161.8-16.65 161.66-18.16 161.51-19.68 160.97-20.85 160.44-22.02 159.51-22.68 158.58-23.34 156.92-23.34L156.92-23.34Q156.24-23.34 155.09-23.12 153.94-22.9 152.87-22.41L152.87-22.41 152.87-26.17Q154.19-26.86 155.72-27.34 157.26-27.83 158.73-27.83L158.73-27.83Q160.93-27.83 162.44-26.93 163.95-26.03 165.47-24.51ZM175.91-27.54L181.19-27.54 181.82-24.76 181.82 0 175.91 0 175.91-27.54ZM196.42-24.51L196.42-24.51Q197.25-23.68 197.71-22.58 198.18-21.48 198.4-20.29 198.62-19.09 198.67-17.87 198.72-16.65 198.72-15.48L198.72-15.48 198.72-0.98 198.72 0 192.76 0 192.76-14.99Q192.76-16.65 192.61-18.16 192.47-19.68 191.93-20.85 191.39-22.02 190.46-22.68 189.54-23.34 187.88-23.34L187.88-23.34Q187.19-23.34 186.04-23.12 184.9-22.9 183.82-22.41L183.82-22.41 183.82-26.17Q185.14-26.86 186.68-27.34 188.22-27.83 189.68-27.83L189.68-27.83Q191.88-27.83 193.39-26.93 194.91-26.03 196.42-24.51ZM219.66-23.19L219.66-27.78Q222.3-27.54 224.42-26.37 226.55-25.2 228.06-23.34 229.57-21.48 230.38-19.09 231.18-16.7 231.18-14.11L231.18-14.11Q231.18-12.94 231.04-11.77L231.04-11.77 214.29-11.77 214.29-16.06 225.57-16.06Q225.57-17.33 225.15-18.51 224.74-19.68 223.93-20.68 223.13-21.68 222.05-22.36 220.98-23.05 219.66-23.19L219.66-23.19ZM219.46-4.59L219.46-4.59Q220-4.59 220.81-4.71 221.61-4.83 222.52-5.15 223.42-5.47 224.32-5.96 225.23-6.45 225.91-7.13L225.91-7.13 228.06-3.86Q226.45-1.86 224.3-0.83 222.15 0.2 218.83 0.2L218.83 0.2Q216.14 0.2 213.8-0.9 211.46-2 209.8-3.91 208.14-5.81 207.16-8.35 206.18-10.89 206.18-13.82L206.18-13.82Q206.18-16.6 207.09-19.09 207.99-21.58 209.55-23.46 211.12-25.34 213.19-26.51 215.27-27.69 217.66-27.83L217.66-27.83 217.66-23.14Q215.85-22.8 214.68-21.68 213.51-20.56 212.85-19.12 212.19-17.68 211.92-16.16 211.65-14.65 211.65-13.57L211.65-13.57Q211.65-11.67 212.12-10.03 212.58-8.4 213.56-7.2 214.53-6.01 215.97-5.3 217.41-4.59 219.46-4.59ZM239.29-27.54L244.56-27.54 245.19-24.71 245.19-9.77 245.19-9.67 245.19 0 239.29 0 239.29-27.54ZM247.2-21.34L247.2-26.32Q248.42-27 250.13-27.37 251.84-27.73 254.77-27.73L254.77-27.73 254.77-21.58Q253.4-21.97 251.44-22.02L251.44-22.02Q250.37-22.02 249.27-21.85 248.17-21.68 247.2-21.34L247.2-21.34Z" opacity="1" transform="matrix(1,0,0,1,0,0)" fill="#ffffff" class="wordmark-text-0" data-fill-palette-color="primary" id="text-0"></path></svg></g></svg></g></svg></g></svg></g><g></g></svg></g></svg></g><g mask="url(#53d63feb-e5e4-4de3-8d89-b705d9631bb3)"><g transform="matrix(6.145639677480827, 0, 0, 6.145639677480827, 42.69321965780378, 1)"><svg xmlns="http://www.w3.org/2000/svg" xmlns:xlink="http://www.w3.org/1999/xlink" version="1.1" x="0" y="0" viewBox="0 4.775793650793651 50.464 39.89820634920635" enable-background="new 0 0 50.4 50.4" xml:space="preserve" id="none" width="50.464" height="39.89820634920635" class="icon-none" data-fill-palette-color="accent"><g fill="#86aaf9" data-fill-palette-color="accent"><polygon points="25.965,16.967 9.645,16.967 9.645,14.927 25.965,14.927 25.965,16.967  " fill="#86aaf9" data-fill-palette-color="accent"></polygon><polygon points="25.965,22.302 9.645,22.302 9.645,20.26 25.965,20.26 25.965,22.302  " fill="#86aaf9" data-fill-palette-color="accent"></polygon><polygon points="23.415,32.969 9.645,32.969 9.645,30.927 23.415,30.927 23.415,32.969  " fill="#86aaf9" data-fill-palette-color="accent"></polygon><polygon points="23.415,38.302 9.645,38.302 9.645,36.26 23.415,36.26 23.415,38.302  " fill="#86aaf9" data-fill-palette-color="accent"></polygon><polygon points="25.965,27.635 9.645,27.635 9.645,25.594 25.965,25.594 25.965,27.635  " fill="#86aaf9" data-fill-palette-color="accent"></polygon><polygon points="2.295,40.298 0,40.298 0,4.814 24.435,4.814 24.435,7.109 2.295,7.109 2.295,40.298  " fill="#86aaf9" data-fill-palette-color="accent"></polygon><path d="M36.419 25.254V27.21H31.871V8.723H4.079V44.674H31.871V39.256H29.804C29.728 39.256 29.653 39.248 29.576 39.244V42.379H6.374V11.018H29.576V35.438A3.06 3.06 0 0 1 27.889 31.166 1.147 1.147 0 1 0 25.85 30.113 5.4 5.4 0 0 0 25.258 32.563C25.258 35.273 27.282 37.513 29.897 37.864 30.337 37.967 30.612 37.918 30.612 37.918H36.42V40.125H50.464V25.254zM36.419 35.624H31.871V29.505H36.419zM43.302 33.737A1.27 1.27 0 1 1 43.302 31.197 1.27 1.27 0 0 1 43.301 33.738" fill="#86aaf9" data-fill-palette-color="accent"></path></g></svg></g></g></svg></g><defs></defs></svg><rect width="395.52" height="247.2" fill="none" stroke="none" visibility="hidden"></rect></g></svg></g></svg>